<?xml version="1.0" encoding="UTF-8" standalone="no" ?>
<!DOCTYPE svg PUBLIC "-//W3C//DTD SVG 1.1//EN" "http://www.w3.org/Graphics/SVG/1.1/DTD/svg11.dtd">
<svg xmlns="http://www.w3.org/2000/svg" xmlns:xlink="http://www.w3.org/1999/xlink" version="1.1" width="1280" height="1024" viewBox="0 0 1280 1024" xml:space="preserve">
<desc>Created with Fabric.js 5.3.0</desc>
<defs>
</defs>
<g transform="matrix(1 0 0 1 640 512)" id="background-logo"  >
<rect style="stroke: none; stroke-width: 0; stroke-dasharray: none; stroke-linecap: butt; stroke-dashoffset: 0; stroke-linejoin: miter; stroke-miterlimit: 4; fill: rgb(255,255,255); fill-opacity: 0; fill-rule: nonzero; opacity: 1;"  paint-order="stroke"  x="-640" y="-512" rx="0" ry="0" width="1280" height="1024" />
</g>
<g transform="matrix(1.9211538461538462 0 0 1.9211538461538462 640 512)" id="logo-logo"  >
<g style=""  paint-order="stroke"   >
		<g transform="matrix(1.0902864594368067 0 0 1.0902864594368067 0 -101.71827523315693)"  >
<path style="stroke: none; stroke-width: 1; stroke-dasharray: none; stroke-linecap: butt; stroke-dashoffset: 0; stroke-linejoin: miter; stroke-miterlimit: 4; fill: rgb(90,64,68); fill-rule: nonzero; opacity: 1;"  paint-order="stroke"  transform=" translate(-250, -156.7)" d="M 421.79 220.84 C 415.01000000000005 220.84 409.05 216.27 407.37 209.7 C 399.12 177.47 381 148.27999999999997 355.44 126.43999999999998 C 326.09 101.37 288.65 87.56 250 87.56 C 211.35000000000002 87.56 173.91 101.37 144.56 126.43 C 119 148.27 100.88 177.46 92.63 209.69 C 90.94999999999999 216.26 85 220.84 78.21 220.84 L 73.27 220.84 L 73.27 225.84 L 160.28 225.84 L 160.28 220.84 L 160.28 220.84 C 149.24 220.84 142.06 209.27 146.9 199.34 C 165.8 160.6 205.24 135.19 250 135.19 C 294.76 135.19 334.2 160.6 353.1 199.34 C 357.94 209.27 350.76000000000005 220.84 339.72 220.84 L 339.72 220.84 L 339.72 225.84 L 426.73 225.84 L 426.73 220.84 L 421.79 220.84 z M 374.12 220.84 C 367.77 220.84 362.17 216.79 360.04 210.81 C 352.8 190.55 339.96000000000004 172.4 323.02000000000004 158.82 C 302.11 142.04999999999998 276.86 133.19 250.00000000000006 133.19 C 223.1400000000001 133.19 197.89000000000004 142.05 176.98000000000008 158.82 C 160.04000000000008 172.4 147.20000000000007 190.54999999999998 139.96000000000006 210.81 C 137.82000000000008 216.79 132.23000000000008 220.84 125.88000000000007 220.84 L 119.36000000000007 220.84 C 109.25000000000007 220.84 101.97000000000007 210.95 105.17000000000007 201.36 C 125.66 139.89 183.37 97.28 250 97.28 C 316.63 97.28 374.34000000000003 139.89 394.83000000000004 201.36 C 398.03000000000003 210.95000000000002 390.75000000000006 220.84 380.64000000000004 220.84 L 374.12 220.84 z M 401.96 220.84 C 395.37 186.34 377 154.86 350.03999999999996 131.98000000000002 C 322.15 108.31000000000002 286.61999999999995 95.28000000000002 249.99999999999994 95.28000000000002 C 213.36999999999995 95.28000000000002 177.83999999999995 108.31000000000002 149.95999999999992 131.98000000000002 C 122.99999999999991 154.86 104.62999999999992 186.34000000000003 98.03999999999992 220.84000000000003 L 95.27999999999992 220.84000000000003 C 109.19 146.33 173.79 92.56 250 92.56 C 326.21000000000004 92.56 390.81 146.33 404.72 220.84 L 401.96 220.84 z" stroke-linecap="round" />
</g>
		<g transform="matrix(1.0902864594368067 0 0 1.0902864594368067 0.010902864594413586 129.02449960975173)"  >
<path style="stroke: none; stroke-width: 1; stroke-dasharray: none; stroke-linecap: butt; stroke-dashoffset: 0; stroke-linejoin: miter; stroke-miterlimit: 4; fill: rgb(90,64,68); fill-rule: nonzero; opacity: 1;"  paint-order="stroke"  transform=" translate(-250.01000000000005, -368.33500000000004)" d="M 321.54 329.24 L 321.54 329.24 C 325.83000000000004 329.24 327.74 334.57 324.47 337.35 C 303.82000000000005 354.95000000000005 277.44000000000005 364.81 250.00000000000003 364.81 C 222.56 364.81 196.18000000000004 354.95 175.53000000000003 337.35 C 172.26000000000002 334.57000000000005 174.17000000000002 329.24 178.46000000000004 329.24 L 178.46000000000004 329.24 L 178.46000000000004 324.24 L 97.76000000000003 324.24 L 97.76000000000003 329.24 L 105.55000000000004 329.24 C 107.19000000000004 329.24 108.70000000000005 330.13 109.53000000000004 331.55 C 138.60000000000005 381.54 192.03000000000003 412.43 250.01000000000005 412.43 C 307.99000000000007 412.43 361.4200000000001 381.54 390.49 331.55 C 391.32 330.13 392.82 329.24 394.47 329.24 L 402.26000000000005 329.24 L 402.26000000000005 324.24 L 321.55000000000007 324.24 L 321.55000000000007 329.24 L 321.54 329.24 z M 250 407.44 C 193.88 407.44 142.16 377.58 113.96000000000001 329.25 L 117.12 329.25 C 144.98000000000002 375.86 195.67000000000002 404.73 250 404.73 C 304.34000000000003 404.73 355.03 375.86 382.89 329.25 L 386.05 329.25 C 357.84 377.58 306.11 407.44 250 407.44 z M 250 402.72 C 199.63 402.72 152.44 377.59000000000003 124.1 336.43 C 122.00999999999999 333.39 124.19999999999999 329.25 127.89 329.25 L 162.22 329.25 C 163.48 329.25 164.68 329.78 165.55 330.69 C 187.55 353.7 218.07000000000002 366.82 250 366.82 C 281.92999999999995 366.82 312.45 353.7 334.45 330.69 C 335.32 329.78 336.52 329.25 337.78 329.25 L 372.10999999999996 329.25 C 375.79999999999995 329.25 377.98999999999995 333.4 375.9 336.43 C 347.56 377.59 300.37 402.72 250 402.72 z" stroke-linecap="round" />
</g>
		<g transform="matrix(1.0902864594368067 0 0 1.0902864594368067 -0.011322578436249842 -68.06113223034265)"  >
<path style="stroke: none; stroke-width: 1; stroke-dasharray: none; stroke-linecap: butt; stroke-dashoffset: 0; stroke-linejoin: miter; stroke-miterlimit: 4; fill: rgb(90,64,68); fill-rule: nonzero; opacity: 1;"  paint-order="stroke"  transform=" translate(-249.98961504259887, -187.57000000000002)" d="M 177.68 211.36 L 175.08 211.26000000000002 L 175.08 225.84000000000003 L 322.27 225.84000000000003 L 322.27 218.51000000000002 C 331.06 195.16000000000003 315.75 181.89000000000001 306.57 173.95000000000002 C 303.61 171.38000000000002 300.81 168.96 300.27 167.43 C 298.33 161.93 301.69 159.81 302.34999999999997 159.45000000000002 L 304.73999999999995 158.25000000000003 L 299.84 149.92000000000002 L 297.72999999999996 151.04000000000002 C 294.83 152.58 269.46 166.45000000000002 271.17999999999995 178.74 C 271.88999999999993 183.82000000000002 276.87999999999994 186.98000000000002 282.15999999999997 190.31 C 287.23999999999995 193.52 292.47999999999996 196.83 293.54999999999995 201.63 L 293.56999999999994 201.71 C 294.61999999999995 206.52 289.8999999999999 210.55 285.29999999999995 208.79000000000002 C 282.05999999999995 207.55 278.71999999999997 206.08 275.3299999999999 204.34000000000003 C 270.93999999999994 202.09000000000003 266.9699999999999 200.19000000000003 263.2799999999999 198.65000000000003 C 253.2899999999999 194.48000000000005 250.80999999999992 181.45000000000005 258.49999999999994 173.83000000000004 L 258.49999999999994 173.83000000000004 L 259.7699999999999 175.00000000000003 L 263.1499999999999 171.32000000000002 L 262.0499999999999 170.31000000000003 L 279.6799999999999 152.85000000000002 L 276.1599999999999 149.3 L 258.3599999999999 166.93 L 249.6699999999999 158.94 L 246.2899999999999 162.62 L 247.9699999999999 164.16 L 213.26999999999992 199.29 C 208.89999999999992 203.70999999999998 203.42999999999992 206.88 197.41999999999993 208.45999999999998 L 197.32999999999993 208.48 C 198.00999999999993 204.95999999999998 199.29999999999993 201.42 201.19999999999993 197.89 C 202.23999999999992 195.95 202.79999999999993 193.75 202.79999999999993 191.52999999999997 C 202.79999999999993 187.69999999999996 201.15999999999994 184.04999999999998 198.30999999999992 181.48999999999998 C 195.45999999999992 178.93999999999997 191.6299999999999 177.71999999999997 187.79999999999993 178.14999999999998 C 181.77999999999992 178.81999999999996 176.94999999999993 183.45999999999998 176.02999999999992 189.42999999999998 C 175.55999999999992 192.54 176.1299999999999 195.59999999999997 177.67999999999992 198.26999999999998 C 179.23999999999992 200.95 180.36999999999992 203.98999999999998 181.0699999999999 207.27999999999997 C 181.53 209.41 179.84 211.39 177.68 211.36 L 177.68 211.36 z M 180.08 216.33 C 180.61 216.31 181.23000000000002 216.27 181.91000000000003 216.23000000000002 C 185.29000000000002 216.00000000000003 190.42000000000002 215.38000000000002 196.79000000000002 213.83 C 203.04000000000002 212.3 210.45000000000002 209.87 218.52 205.97 C 240.59 195.31 249.98000000000002 197 273.07 208.82 C 292.88 218.95999999999998 310.75 220.41 317.28 220.57999999999998 L 317.28 220.85 L 180.07999999999998 220.85 L 180.07999999999998 216.33 z M 298.44 200.55 C 296.92 193.72 290.5 189.67000000000002 284.84 186.09 C 280.57 183.39000000000001 276.53 180.84 276.14 178.05 C 275.28 171.89000000000001 288.07 162.29000000000002 297.71 156.77 C 295.43 159.09 293.48999999999995 163.22 295.56 169.08 C 296.54 171.87 299.53000000000003 174.45000000000002 303.31 177.72000000000003 C 312.37 185.56000000000003 324.68 196.23000000000002 318.03000000000003 215.57000000000002 C 314.71000000000004 215.51000000000002 306.64000000000004 215.04000000000002 296.37 212.35000000000002 C 298.55 208.06 299.24 204.18 298.44 200.55 z M 251.67 167.56 L 254.82 170.46 L 228.64 196.39000000000001 C 225.85 197.29000000000002 222.89999999999998 198.46 219.75 199.88000000000002 L 251.67 167.56 z M 182.01 195.78 C 181.04 194.1 180.67999999999998 192.17 180.98 190.21 C 181.54 186.53 184.64 183.56 188.35999999999999 183.15 C 190.80999999999997 182.87 193.17 183.62 194.98 185.25 C 196.76999999999998 186.86 197.79999999999998 189.16 197.79999999999998 191.56 C 197.79999999999998 192.97 197.45999999999998 194.31 196.79999999999998 195.55 C 194.26999999999998 200.26000000000002 192.68999999999997 205.01000000000002 192.07 209.75 C 190.09 210.15 188.28 210.46 186.65 210.69 C 186.09 205.19 184.52 200.1 182.01 195.78 z" stroke-linecap="round" />
</g>
		<g transform="matrix(1.0902864594368067 0 0 1.0902864594368067 0 100.46989723710169)"  >
<polygon style="stroke: none; stroke-width: 1; stroke-dasharray: none; stroke-linecap: butt; stroke-dashoffset: 0; stroke-linejoin: miter; stroke-miterlimit: 4; fill: rgb(90,64,68); fill-rule: nonzero; opacity: 1;"  paint-order="stroke"  points="2.490000000000009,-2.625 0,-7.6749999999999545 -2.490000000000009,-2.625 -8.069999999999993,-1.8149999999999977 -4.039999999999992,2.125 -4.990000000000009,7.675000000000011 0,5.055000000000007 4.990000000000009,7.675000000000011 4.039999999999992,2.125 8.069999999999993,-1.8149999999999977 " />
</g>
		<g transform="matrix(1.0902864594368067 0 0 1.0902864594368067 28.739951070754216 100.46989723710169)"  >
<polygon style="stroke: none; stroke-width: 1; stroke-dasharray: none; stroke-linecap: butt; stroke-dashoffset: 0; stroke-linejoin: miter; stroke-miterlimit: 4; fill: rgb(90,64,68); fill-rule: nonzero; opacity: 1;"  paint-order="stroke"  points="2.5,-2.625 0,-7.6749999999999545 -2.490000000000009,-2.625 -8.069999999999993,-1.8149999999999977 -4.03000000000003,2.125 -4.990000000000009,7.675000000000011 0,5.055000000000007 4.990000000000009,7.675000000000011 4.039999999999964,2.125 8.069999999999993,-1.8149999999999977 " />
</g>
		<g transform="matrix(1.0902864594368067 0 0 1.0902864594368067 -28.739951070754216 100.46989723710169)"  >
<polygon style="stroke: none; stroke-width: 1; stroke-dasharray: none; stroke-linecap: butt; stroke-dashoffset: 0; stroke-linejoin: miter; stroke-miterlimit: 4; fill: rgb(90,64,68); fill-rule: nonzero; opacity: 1;"  paint-order="stroke"  points="2.490000000000009,-2.625 0,-7.6749999999999545 -2.5,-2.625 -8.069999999999993,-1.8149999999999977 -4.039999999999992,2.125 -4.989999999999981,7.675000000000011 0,5.055000000000007 4.990000000000009,7.675000000000011 4.030000000000001,2.125 8.070000000000022,-1.8149999999999977 " />
</g>
</g>
</g>
<g transform="matrix(1.9211538461538462 0 0 1.9211538461538462 639.1138328802776 564.7285170306977)" id="text-logo"  >
<g style=""  paint-order="stroke"   >
		<g transform="matrix(1 0 0 1 0 0)" id="text-logo-path-0"  >
<path style="stroke: none; stroke-width: 0; stroke-dasharray: none; stroke-linecap: butt; stroke-dashoffset: 0; stroke-linejoin: miter; stroke-miterlimit: 4; fill: rgb(90,64,68); fill-rule: nonzero; opacity: 1;"  paint-order="stroke"  transform=" translate(-194.725, 25.102339804710844)" d="M 11.3 0 L 3.17 0 Q 2.88 0 2.88 -0.36 L 2.88 -0.36 L 3.02 -49.82 Q 3.02 -50.11 3.31 -50.11 L 3.31 -50.11 L 12.1 -50.11 Q 12.38 -50.11 12.6 -49.82 L 12.6 -49.82 L 19.15 -40.32 L 25.7 -49.82 Q 25.92 -50.11 26.21 -50.11 L 26.21 -50.11 L 35.06 -50.11 Q 35.35 -50.11 35.35 -49.82 L 35.35 -49.82 L 35.5 -0.36 Q 35.5 0 35.21 0 L 35.21 0 L 27.07 0 Q 26.78 0 26.78 -0.36 L 26.78 -0.36 L 26.71 -37.08 L 19.15 -26.14 L 11.66 -37.08 L 11.59 -0.36 Q 11.59 0 11.3 0 L 11.3 0 Z M 42.91 -0.36 L 42.91 -0.36 L 51.84 -49.82 Q 51.91 -50.11 52.2 -50.11 L 52.2 -50.11 L 62.64 -50.11 Q 62.93 -50.11 63 -49.82 L 63 -49.82 L 71.57 -0.36 Q 71.64 0 71.28 0 L 71.28 0 L 63.29 0 Q 63 0 62.93 -0.36 L 62.93 -0.36 L 62.14 -5.62 L 52.34 -5.62 L 51.55 -0.36 Q 51.48 0 51.19 0 L 51.19 0 L 43.2 0 Q 42.91 0 42.91 -0.36 Z M 57.02 -33.55 L 53.78 -13.32 L 60.7 -13.32 L 57.74 -33.55 L 57.31 -36.22 L 57.02 -33.55 Z M 93.17 -0.07 L 80.28 0 Q 79.92 0 79.92 -0.36 L 79.92 -0.36 L 80.06 -49.82 Q 80.06 -50.11 80.35 -50.11 L 80.35 -50.11 L 93.82 -50.18 Q 97.78 -50.26 101.05 -48.31 Q 104.33 -46.37 106.27 -43.09 Q 108.22 -39.82 108.22 -35.86 L 108.22 -35.86 L 108.22 -15.19 Q 108.22 -11.02 106.2 -7.6 Q 104.18 -4.18 100.8 -2.16 Q 97.42 -0.14 93.17 -0.07 L 93.17 -0.07 Z M 88.78 -41.47 L 88.7 -8.86 L 93.17 -8.86 Q 95.83 -8.86 97.67 -10.73 Q 99.5 -12.6 99.5 -15.19 L 99.5 -15.19 L 99.5 -35.93 Q 99.5 -38.23 97.81 -39.92 Q 96.12 -41.62 93.82 -41.54 L 93.82 -41.54 L 88.78 -41.47 Z M 141.26 0 L 118.01 0 Q 117.72 0 117.72 -0.36 L 117.72 -0.36 L 117.79 -49.82 Q 117.79 -50.11 118.08 -50.11 L 118.08 -50.11 L 141.19 -50.11 Q 141.48 -50.11 141.48 -49.75 L 141.48 -49.75 L 141.48 -41.69 Q 141.48 -41.4 141.19 -41.4 L 141.19 -41.4 L 126.43 -41.4 L 126.43 -30.17 L 141.19 -30.17 Q 141.48 -30.17 141.48 -29.88 L 141.48 -29.88 L 141.55 -21.74 Q 141.55 -21.46 141.26 -21.46 L 141.26 -21.46 L 126.43 -21.46 L 126.43 -8.86 L 141.26 -8.86 Q 141.55 -8.86 141.55 -8.5 L 141.55 -8.5 L 141.55 -0.29 Q 141.55 0 141.26 0 L 141.26 0 Z M 179.42 0 L 166.54 0 Q 166.25 0 166.25 -0.36 L 166.25 -0.36 L 166.39 -49.82 Q 166.39 -50.11 166.68 -50.11 L 166.68 -50.11 L 180.5 -50.11 Q 184.61 -50.11 187.85 -48.13 Q 191.09 -46.15 192.96 -42.91 Q 194.83 -39.67 194.83 -35.86 L 194.83 -35.86 Q 194.83 -32.76 193.43 -30.1 Q 192.02 -27.43 190.08 -25.78 L 190.08 -25.78 Q 192.17 -23.69 193.32 -20.95 Q 194.47 -18.22 194.47 -15.19 L 194.47 -15.19 Q 194.47 -11.02 192.46 -7.56 Q 190.44 -4.1 187.02 -2.05 Q 183.6 0 179.42 0 L 179.42 0 Z M 175.03 -41.54 L 175.03 -30.24 L 180.5 -30.24 Q 183.02 -30.24 184.57 -32 Q 186.12 -33.77 186.12 -35.86 L 186.12 -35.86 Q 186.12 -38.16 184.46 -39.85 Q 182.81 -41.54 180.5 -41.54 L 180.5 -41.54 L 175.03 -41.54 Z M 175.03 -21.53 L 174.96 -8.78 L 179.42 -8.78 Q 182.02 -8.78 183.89 -10.69 Q 185.76 -12.6 185.76 -15.19 L 185.76 -15.19 Q 185.76 -17.78 183.89 -19.66 Q 182.02 -21.53 179.42 -21.53 L 179.42 -21.53 L 175.03 -21.53 Z M 216.29 0 L 208.01 0 Q 207.79 0 207.79 -0.29 L 207.79 -0.29 L 207.86 -20.74 L 198.22 -49.82 Q 198.14 -50.11 198.43 -50.11 L 198.43 -50.11 L 206.42 -50.11 Q 206.78 -50.11 206.86 -49.82 L 206.86 -49.82 L 212.18 -30.46 L 217.58 -49.82 Q 217.66 -50.11 217.94 -50.11 L 217.94 -50.11 L 226.01 -50.11 Q 226.3 -50.11 226.22 -49.82 L 226.22 -49.82 L 216.5 -21.02 L 216.58 -0.29 Q 216.58 0 216.29 0 L 216.29 0 Z M 256.9 0 L 248.76 0 Q 248.47 0 248.47 -0.36 L 248.47 -0.36 L 248.54 -49.82 Q 248.54 -50.11 248.9 -50.11 L 248.9 -50.11 L 256.9 -50.11 Q 257.26 -50.11 257.26 -49.82 L 257.26 -49.82 L 257.18 -30.24 L 267.98 -30.24 L 267.98 -49.82 Q 267.98 -50.11 268.27 -50.11 L 268.27 -50.11 L 276.26 -50.11 Q 276.62 -50.11 276.62 -49.82 L 276.62 -49.82 L 276.77 -0.36 Q 276.77 0 276.41 0 L 276.41 0 L 268.34 0 Q 267.98 0 267.98 -0.36 L 267.98 -0.36 L 267.98 -21.53 L 257.18 -21.53 L 257.18 -0.36 Q 257.18 0 256.9 0 L 256.9 0 Z M 284.04 -0.36 L 284.04 -0.36 L 292.97 -49.82 Q 293.04 -50.11 293.33 -50.11 L 293.33 -50.11 L 303.77 -50.11 Q 304.06 -50.11 304.13 -49.82 L 304.13 -49.82 L 312.7 -0.36 Q 312.77 0 312.41 0 L 312.41 0 L 304.42 0 Q 304.13 0 304.06 -0.36 L 304.06 -0.36 L 303.26 -5.62 L 293.47 -5.62 L 292.68 -0.36 Q 292.61 0 292.32 0 L 292.32 0 L 284.33 0 Q 284.04 0 284.04 -0.36 Z M 298.15 -33.55 L 294.91 -13.32 L 301.82 -13.32 L 298.87 -33.55 L 298.44 -36.22 L 298.15 -33.55 Z M 328.9 0 L 321.7 0 Q 321.12 0 321.12 -0.5 L 321.12 -0.5 L 321.05 -49.54 Q 321.05 -50.11 321.62 -50.11 L 321.62 -50.11 L 328.1 -50.11 L 340.27 -21.74 L 339.91 -49.54 Q 339.91 -50.11 340.56 -50.11 L 340.56 -50.11 L 347.69 -50.11 Q 348.12 -50.11 348.12 -49.54 L 348.12 -49.54 L 348.19 -0.43 Q 348.19 0 347.83 0 L 347.83 0 L 341.5 0 L 329.04 -26.5 L 329.54 -0.58 Q 329.54 0 328.9 0 L 328.9 0 Z M 371.52 -0.07 L 358.63 0 Q 358.27 0 358.27 -0.36 L 358.27 -0.36 L 358.42 -49.82 Q 358.42 -50.11 358.7 -50.11 L 358.7 -50.11 L 372.17 -50.18 Q 376.13 -50.26 379.4 -48.31 Q 382.68 -46.37 384.62 -43.09 Q 386.57 -39.82 386.57 -35.86 L 386.57 -35.86 L 386.57 -15.19 Q 386.57 -11.02 384.55 -7.6 Q 382.54 -4.18 379.15 -2.16 Q 375.77 -0.14 371.52 -0.07 L 371.52 -0.07 Z M 367.13 -41.47 L 367.06 -8.86 L 371.52 -8.86 Q 374.18 -8.86 376.02 -10.73 Q 377.86 -12.6 377.86 -15.19 L 377.86 -15.19 L 377.86 -35.93 Q 377.86 -38.23 376.16 -39.92 Q 374.47 -41.62 372.17 -41.54 L 372.17 -41.54 L 367.13 -41.47 Z" stroke-linecap="round" />
</g>
</g>
</g>
<g transform="matrix(1.7190066205164494 0.8578160287686001 -0.8578160287686001 1.7190066205164494 503.5524419112808 769.5975247316335)" id="tagline-74591b3e-714e-4061-aeb9-d8c84a95ad0c-logo-0"  >
<g style=""  paint-order="stroke"   >
		<g transform="matrix(1 0 0 1 0 0)" id="ec29f96d-03ec-4886-a23f-d97ac3acc69e-path-0"  >
<path style="stroke: none; stroke-width: 0; stroke-dasharray: none; stroke-linecap: butt; stroke-dashoffset: 0; stroke-linejoin: miter; stroke-miterlimit: 4; fill: rgb(90,64,68); fill-rule: nonzero; opacity: 1;"  paint-order="stroke"  transform=" translate(-3.4650000000000003, 4.525)" d="M 2.04 0 L 0.57 0 Q 0.52 0 0.52 -0.07 L 0.52 -0.07 L 0.55 -9 Q 0.55 -9.05 0.6 -9.05 L 0.6 -9.05 L 2.18 -9.05 Q 2.24 -9.05 2.28 -9 L 2.28 -9 L 3.46 -7.28 L 4.64 -9 Q 4.68 -9.05 4.73 -9.05 L 4.73 -9.05 L 6.33 -9.05 Q 6.38 -9.05 6.38 -9 L 6.38 -9 L 6.41 -0.07 Q 6.41 0 6.36 0 L 6.36 0 L 4.89 0 Q 4.84 0 4.84 -0.07 L 4.84 -0.07 L 4.82 -6.7 L 3.46 -4.72 L 2.11 -6.7 L 2.09 -0.07 Q 2.09 0 2.04 0 L 2.04 0 Z" stroke-linecap="round" />
</g>
</g>
</g>
<g transform="matrix(1.7895732017011348 0.6987559347475079 -0.698755934747508 1.7895732017011352 528.5402080107401 780.6967796347108)" id="tagline-74591b3e-714e-4061-aeb9-d8c84a95ad0c-logo-1"  >
<g style=""  paint-order="stroke"   >
		<g transform="matrix(1 0 0 1 0 0)" id="5d893f4b-598a-4ff8-bebe-2cecfa6b1de9-path-0"  >
<path style="stroke: none; stroke-width: 0; stroke-dasharray: none; stroke-linecap: butt; stroke-dashoffset: 0; stroke-linejoin: miter; stroke-miterlimit: 4; fill: rgb(90,64,68); fill-rule: nonzero; opacity: 1;"  paint-order="stroke"  transform=" translate(-2.670753281365934, 4.525)" d="M 0.08 -0.07 L 0.08 -0.07 L 1.69 -9 Q 1.7 -9.05 1.76 -9.05 L 1.76 -9.05 L 3.64 -9.05 Q 3.69 -9.05 3.71 -9 L 3.71 -9 L 5.25 -0.07 Q 5.27 0 5.2 0 L 5.2 0 L 3.76 0 Q 3.71 0 3.69 -0.07 L 3.69 -0.07 L 3.55 -1.01 L 1.78 -1.01 L 1.64 -0.07 Q 1.63 0 1.57 0 L 1.57 0 L 0.13 0 Q 0.08 0 0.08 -0.07 Z M 2.63 -6.06 L 2.04 -2.41 L 3.29 -2.41 L 2.76 -6.06 L 2.68 -6.54 L 2.63 -6.06 Z" stroke-linecap="round" />
</g>
</g>
</g>
<g transform="matrix(1.8400272312795394 0.5523874444096906 -0.5523874444096906 1.8400272312795396 551.7816717664493 788.7209279650926)" id="tagline-74591b3e-714e-4061-aeb9-d8c84a95ad0c-logo-2"  >
<g style=""  paint-order="stroke"   >
		<g transform="matrix(1 0 0 1 0 0)" id="0af21800-5ddf-4047-8868-8943a8142f50-path-0"  >
<path style="stroke: none; stroke-width: 0; stroke-dasharray: none; stroke-linecap: butt; stroke-dashoffset: 0; stroke-linejoin: miter; stroke-miterlimit: 4; fill: rgb(90,64,68); fill-rule: nonzero; opacity: 1;"  paint-order="stroke"  transform=" translate(-2.545, 4.525)" d="M 3.29 0 L 1.82 0 Q 1.77 0 1.77 -0.07 L 1.77 -0.07 L 1.77 -7.48 L 0.08 -7.48 Q 0.01 -7.48 0.01 -7.54 L 0.01 -7.54 L 0.03 -9 Q 0.03 -9.05 0.08 -9.05 L 0.08 -9.05 L 5.02 -9.05 Q 5.08 -9.05 5.08 -9 L 5.08 -9 L 5.08 -7.54 Q 5.08 -7.48 5.03 -7.48 L 5.03 -7.48 L 3.33 -7.48 L 3.34 -0.07 Q 3.34 0 3.29 0 L 3.29 0 Z" stroke-linecap="round" />
</g>
</g>
</g>
<g transform="matrix(1.879691807175994 0.3969770908089807 -0.3969770908089808 1.8796918071759945 576.3450678573134 794.9999914712746)" id="tagline-74591b3e-714e-4061-aeb9-d8c84a95ad0c-logo-3"  >
<g style=""  paint-order="stroke"   >
		<g transform="matrix(1 0 0 1 0 0)" id="ce936a75-2c4c-4b58-a085-bbfd9ef1ac6a-path-0"  >
<path style="stroke: none; stroke-width: 0; stroke-dasharray: none; stroke-linecap: butt; stroke-dashoffset: 0; stroke-linejoin: miter; stroke-miterlimit: 4; fill: rgb(90,64,68); fill-rule: nonzero; opacity: 1;"  paint-order="stroke"  transform=" translate(-2.545, 4.525)" d="M 3.29 0 L 1.82 0 Q 1.77 0 1.77 -0.07 L 1.77 -0.07 L 1.77 -7.48 L 0.08 -7.48 Q 0.01 -7.48 0.01 -7.54 L 0.01 -7.54 L 0.03 -9 Q 0.03 -9.05 0.08 -9.05 L 0.08 -9.05 L 5.02 -9.05 Q 5.08 -9.05 5.08 -9 L 5.08 -9 L 5.08 -7.54 Q 5.08 -7.48 5.03 -7.48 L 5.03 -7.48 L 3.33 -7.48 L 3.34 -0.07 Q 3.34 0 3.29 0 L 3.29 0 Z" stroke-linecap="round" />
</g>
</g>
</g>
<g transform="matrix(0.9908365138666336 0.1350666605369969 -0.1350666605369969 0.9908365138666336 303.5733671938819 413.89447600516417)" id="tagline-74591b3e-714e-4061-aeb9-d8c84a95ad0c-logo-4"  >
<g style=""  paint-order="stroke"   >
		<g transform="matrix(1 0 0 1 0 0)" id="22ec7e86-18b2-41e0-a34a-eb74dda41dfb-path-0"  >
<path style="stroke: none; stroke-width: 0; stroke-dasharray: none; stroke-linecap: butt; stroke-dashoffset: 0; stroke-linejoin: miter; stroke-miterlimit: 4; fill: rgb(90,64,68); fill-rule: nonzero; opacity: 1;"  paint-order="stroke"  transform=" translate(0, 0)" d="" stroke-linecap="round" />
</g>
</g>
</g>
<g transform="matrix(1.9176931083191444 0.11526162803367382 -0.11526162803367383 1.9176931083191446 621.1165579644138 801.0357200763292)" id="tagline-74591b3e-714e-4061-aeb9-d8c84a95ad0c-logo-5"  >
<g style=""  paint-order="stroke"   >
		<g transform="matrix(1 0 0 1 0 0)" id="e163c47e-5926-42a8-8aad-30736aa44dee-path-0"  >
<path style="stroke: none; stroke-width: 0; stroke-dasharray: none; stroke-linecap: butt; stroke-dashoffset: 0; stroke-linejoin: miter; stroke-miterlimit: 4; fill: rgb(90,64,68); fill-rule: nonzero; opacity: 1;"  paint-order="stroke"  transform=" translate(-3.1, 4.525)" d="M 2.9 0 L 0.57 0 Q 0.52 0 0.52 -0.07 L 0.52 -0.07 L 0.55 -9 Q 0.55 -9.05 0.6 -9.05 L 0.6 -9.05 L 3.09 -9.05 Q 3.84 -9.05 4.42 -8.69 Q 5.01 -8.33 5.34 -7.75 Q 5.68 -7.16 5.68 -6.47 L 5.68 -6.47 Q 5.68 -5.92 5.43 -5.43 Q 5.17 -4.95 4.82 -4.65 L 4.82 -4.65 Q 5.2 -4.28 5.41 -3.78 Q 5.62 -3.29 5.62 -2.74 L 5.62 -2.74 Q 5.62 -1.99 5.25 -1.37 Q 4.89 -0.74 4.27 -0.37 Q 3.65 0 2.9 0 L 2.9 0 Z M 2.11 -7.5 L 2.11 -5.46 L 3.09 -5.46 Q 3.55 -5.46 3.83 -5.78 Q 4.11 -6.1 4.11 -6.47 L 4.11 -6.47 Q 4.11 -6.89 3.81 -7.2 Q 3.51 -7.5 3.09 -7.5 L 3.09 -7.5 L 2.11 -7.5 Z M 2.11 -3.89 L 2.09 -1.59 L 2.9 -1.59 Q 3.37 -1.59 3.71 -1.93 Q 4.04 -2.28 4.04 -2.74 L 4.04 -2.74 Q 4.04 -3.21 3.71 -3.55 Q 3.37 -3.89 2.9 -3.89 L 2.9 -3.89 L 2.11 -3.89 Z" stroke-linecap="round" />
</g>
</g>
</g>
<g transform="matrix(1.920446616655366 -0.052123825345736244 0.05212382534573625 1.9204466166553662 647.3119631687869 801.4635044394292)" id="tagline-74591b3e-714e-4061-aeb9-d8c84a95ad0c-logo-6"  >
<g style=""  paint-order="stroke"   >
		<g transform="matrix(1 0 0 1 0 0)" id="64db2d2f-8057-4901-a990-a01a789d89a7-path-0"  >
<path style="stroke: none; stroke-width: 0; stroke-dasharray: none; stroke-linecap: butt; stroke-dashoffset: 0; stroke-linejoin: miter; stroke-miterlimit: 4; fill: rgb(90,64,68); fill-rule: nonzero; opacity: 1;"  paint-order="stroke"  transform=" translate(-2.6700000000000004, 4.525)" d="M 4.77 0 L 0.57 0 Q 0.52 0 0.52 -0.07 L 0.52 -0.07 L 0.53 -9 Q 0.53 -9.05 0.59 -9.05 L 0.59 -9.05 L 4.76 -9.05 Q 4.81 -9.05 4.81 -8.98 L 4.81 -8.98 L 4.81 -7.53 Q 4.81 -7.48 4.76 -7.48 L 4.76 -7.48 L 2.09 -7.48 L 2.09 -5.45 L 4.76 -5.45 Q 4.81 -5.45 4.81 -5.4 L 4.81 -5.4 L 4.82 -3.93 Q 4.82 -3.87 4.77 -3.87 L 4.77 -3.87 L 2.09 -3.87 L 2.09 -1.6 L 4.77 -1.6 Q 4.82 -1.6 4.82 -1.53 L 4.82 -1.53 L 4.82 -0.05 Q 4.82 0 4.77 0 L 4.77 0 Z" stroke-linecap="round" />
</g>
</g>
</g>
<g transform="matrix(1.9085468938128802 -0.21972904839579757 0.21972904839579757 1.9085468938128802 673.9199140975581 799.5679920116634)" id="tagline-74591b3e-714e-4061-aeb9-d8c84a95ad0c-logo-7"  >
<g style=""  paint-order="stroke"   >
		<g transform="matrix(1 0 0 1 0 0)" id="df57dc52-a32f-4124-8f67-3dbe788ea7a6-path-0"  >
<path style="stroke: none; stroke-width: 0; stroke-dasharray: none; stroke-linecap: butt; stroke-dashoffset: 0; stroke-linejoin: miter; stroke-miterlimit: 4; fill: rgb(90,64,68); fill-rule: nonzero; opacity: 1;"  paint-order="stroke"  transform=" translate(-3.0750000000000006, 4.531341373636751)" d="M 2.91 -0.01 L 0.59 0 Q 0.52 0 0.52 -0.07 L 0.52 -0.07 L 0.55 -9 Q 0.55 -9.05 0.6 -9.05 L 0.6 -9.05 L 3.03 -9.06 Q 3.74 -9.07 4.34 -8.72 Q 4.93 -8.37 5.28 -7.78 Q 5.63 -7.19 5.63 -6.47 L 5.63 -6.47 L 5.63 -2.74 Q 5.63 -1.99 5.27 -1.37 Q 4.9 -0.75 4.29 -0.39 Q 3.68 -0.03 2.91 -0.01 L 2.91 -0.01 Z M 2.12 -7.49 L 2.11 -1.6 L 2.91 -1.6 Q 3.39 -1.6 3.72 -1.94 Q 4.06 -2.28 4.06 -2.74 L 4.06 -2.74 L 4.06 -6.49 Q 4.06 -6.9 3.75 -7.21 Q 3.45 -7.51 3.03 -7.5 L 3.03 -7.5 L 2.12 -7.49 Z" stroke-linecap="round" />
</g>
</g>
</g>
<g transform="matrix(1.8820476928756165 -0.38565344849136923 0.38565344849136923 1.8820476928756165 700.0432109468055 795.4105469819474)" id="tagline-74591b3e-714e-4061-aeb9-d8c84a95ad0c-logo-8"  >
<g style=""  paint-order="stroke"   >
		<g transform="matrix(1 0 0 1 0 0)" id="b8580844-6f7b-4655-b71c-5b6dedd3e8ce-path-0"  >
<path style="stroke: none; stroke-width: 0; stroke-dasharray: none; stroke-linecap: butt; stroke-dashoffset: 0; stroke-linejoin: miter; stroke-miterlimit: 4; fill: rgb(90,64,68); fill-rule: nonzero; opacity: 1;"  paint-order="stroke"  transform=" translate(-2.68, 4.525)" d="M 2.04 0 L 0.59 0 Q 0.52 0 0.52 -0.07 L 0.52 -0.07 L 0.55 -9 Q 0.55 -9.05 0.6 -9.05 L 0.6 -9.05 L 4.76 -9.05 Q 4.82 -9.05 4.82 -9 L 4.82 -9 L 4.82 -7.53 Q 4.82 -7.48 4.77 -7.48 L 4.77 -7.48 L 2.11 -7.48 L 2.11 -5.46 L 4.77 -5.46 Q 4.82 -5.46 4.82 -5.4 L 4.82 -5.4 L 4.84 -3.93 Q 4.84 -3.87 4.77 -3.87 L 4.77 -3.87 L 2.11 -3.87 L 2.11 -0.07 Q 2.11 0 2.04 0 L 2.04 0 Z" stroke-linecap="round" />
</g>
</g>
</g>
<g transform="matrix(1.8431447873342823 -0.5418942641458565 0.5418942641458565 1.8431447873342823 724.7321278667467 789.2600973731744)" id="tagline-74591b3e-714e-4061-aeb9-d8c84a95ad0c-logo-9"  >
<g style=""  paint-order="stroke"   >
		<g transform="matrix(1 0 0 1 0 0)" id="9b2489ed-e66e-4f50-a22a-5d8cca9091b9-path-0"  >
<path style="stroke: none; stroke-width: 0; stroke-dasharray: none; stroke-linecap: butt; stroke-dashoffset: 0; stroke-linejoin: miter; stroke-miterlimit: 4; fill: rgb(90,64,68); fill-rule: nonzero; opacity: 1;"  paint-order="stroke"  transform=" translate(-2.9149999999999996, 4.529999999999999)" d="M 2.93 0.13 L 2.93 0.13 Q 2.22 0.13 1.64 -0.23 Q 1.07 -0.59 0.72 -1.18 Q 0.36 -1.77 0.36 -2.48 L 0.36 -2.48 L 0.38 -6.6 Q 0.38 -7.32 0.72 -7.9 Q 1.07 -8.49 1.65 -8.84 Q 2.24 -9.19 2.93 -9.19 L 2.93 -9.19 Q 3.63 -9.19 4.2 -8.84 Q 4.77 -8.49 5.12 -7.9 Q 5.46 -7.32 5.46 -6.6 L 5.46 -6.6 L 5.47 -2.48 Q 5.47 -1.77 5.13 -1.18 Q 4.78 -0.59 4.21 -0.23 Q 3.63 0.13 2.93 0.13 Z M 2.93 -1.44 L 2.93 -1.44 Q 3.32 -1.44 3.61 -1.76 Q 3.9 -2.08 3.9 -2.48 L 3.9 -2.48 L 3.89 -6.6 Q 3.89 -7.03 3.61 -7.33 Q 3.34 -7.63 2.93 -7.63 L 2.93 -7.63 Q 2.52 -7.63 2.24 -7.34 Q 1.95 -7.05 1.95 -6.6 L 1.95 -6.6 L 1.95 -2.48 Q 1.95 -2.05 2.24 -1.75 Q 2.52 -1.44 2.93 -1.44 Z" stroke-linecap="round" />
</g>
</g>
</g>
<g transform="matrix(1.787310256429009 -0.704524057683899 0.704524057683899 1.787310256429009 750.5935805396334 780.397327939679)" id="tagline-74591b3e-714e-4061-aeb9-d8c84a95ad0c-logo-10"  >
<g style=""  paint-order="stroke"   >
		<g transform="matrix(1 0 0 1 0 0)" id="f20ef14c-3eb7-426a-8428-6e641f2b649e-path-0"  >
<path style="stroke: none; stroke-width: 0; stroke-dasharray: none; stroke-linecap: butt; stroke-dashoffset: 0; stroke-linejoin: miter; stroke-miterlimit: 4; fill: rgb(90,64,68); fill-rule: nonzero; opacity: 1;"  paint-order="stroke"  transform=" translate(-3.1650000000000005, 4.525)" d="M 2.04 0 L 0.57 0 Q 0.52 0 0.52 -0.07 L 0.52 -0.07 L 0.55 -9 Q 0.55 -9.05 0.6 -9.05 L 0.6 -9.05 L 3.22 -9.05 Q 3.93 -9.05 4.52 -8.7 Q 5.11 -8.36 5.46 -7.78 Q 5.81 -7.2 5.81 -6.47 L 5.81 -6.47 Q 5.81 -5.99 5.67 -5.61 Q 5.53 -5.23 5.33 -4.96 Q 5.14 -4.69 4.98 -4.56 L 4.98 -4.56 Q 5.68 -3.78 5.68 -2.73 L 5.68 -2.73 L 5.69 -0.07 Q 5.69 0 5.63 0 L 5.63 0 L 4.16 0 Q 4.11 0 4.11 -0.04 L 4.11 -0.04 L 4.11 -2.73 Q 4.11 -3.2 3.78 -3.54 Q 3.45 -3.89 2.96 -3.89 L 2.96 -3.89 L 2.11 -3.89 L 2.09 -0.07 Q 2.09 0 2.04 0 L 2.04 0 Z M 2.11 -7.49 L 2.11 -5.45 L 3.22 -5.45 Q 3.63 -5.45 3.94 -5.75 Q 4.25 -6.05 4.25 -6.47 L 4.25 -6.47 Q 4.25 -6.89 3.95 -7.19 Q 3.64 -7.49 3.22 -7.49 L 3.22 -7.49 L 2.11 -7.49 Z" stroke-linecap="round" />
</g>
</g>
</g>
<g transform="matrix(1.7166021489489158 -0.8626176225974524 0.8626176225974526 1.7166021489489158 775.5288959031122 769.2285005528475)" id="tagline-74591b3e-714e-4061-aeb9-d8c84a95ad0c-logo-11"  >
<g style=""  paint-order="stroke"   >
		<g transform="matrix(1 0 0 1 0 0)" id="9e2b6c35-02fb-452a-831b-1efdc1f75136-path-0"  >
<path style="stroke: none; stroke-width: 0; stroke-dasharray: none; stroke-linecap: butt; stroke-dashoffset: 0; stroke-linejoin: miter; stroke-miterlimit: 4; fill: rgb(90,64,68); fill-rule: nonzero; opacity: 1;"  paint-order="stroke"  transform=" translate(-3.0750000000000006, 4.531341373636751)" d="M 2.91 -0.01 L 0.59 0 Q 0.52 0 0.52 -0.07 L 0.52 -0.07 L 0.55 -9 Q 0.55 -9.05 0.6 -9.05 L 0.6 -9.05 L 3.03 -9.06 Q 3.74 -9.07 4.34 -8.72 Q 4.93 -8.37 5.28 -7.78 Q 5.63 -7.19 5.63 -6.47 L 5.63 -6.47 L 5.63 -2.74 Q 5.63 -1.99 5.27 -1.37 Q 4.9 -0.75 4.29 -0.39 Q 3.68 -0.03 2.91 -0.01 L 2.91 -0.01 Z M 2.12 -7.49 L 2.11 -1.6 L 2.91 -1.6 Q 3.39 -1.6 3.72 -1.94 Q 4.06 -2.28 4.06 -2.74 L 4.06 -2.74 L 4.06 -6.49 Q 4.06 -6.9 3.75 -7.21 Q 3.45 -7.51 3.03 -7.5 L 3.03 -7.5 L 2.12 -7.49 Z" stroke-linecap="round" />
</g>
</g>
</g>
<g transform="matrix(1.583522491229688 -1.0877907061385659 1.0877907061385663 1.5835224912296886 462.5117155578106 282.18076131547264)" id="tagline-d46026ea-67eb-4a96-bc25-a7a2250c0926-logo-0"  >
<g style=""  paint-order="stroke"   >
		<g transform="matrix(1 0 0 1 0 0)" id="0d2412cc-f3cc-4780-b540-c63660e4de86-path-0"  >
<path style="stroke: none; stroke-width: 0; stroke-dasharray: none; stroke-linecap: butt; stroke-dashoffset: 0; stroke-linejoin: miter; stroke-miterlimit: 4; fill: rgb(90,64,68); fill-rule: nonzero; opacity: 1;"  paint-order="stroke"  transform=" translate(-1.415, 4.87)" d="M 2.21 0 L 0.63 0 Q 0.56 0 0.56 -0.07 L 0.56 -0.07 L 0.57 -9.69 Q 0.57 -9.74 0.63 -9.74 L 0.63 -9.74 L 2.2 -9.74 Q 2.25 -9.74 2.25 -9.69 L 2.25 -9.69 L 2.27 -0.07 Q 2.27 0 2.21 0 L 2.21 0 Z" stroke-linecap="round" />
</g>
</g>
</g>
<g transform="matrix(1.6692347916760346 -0.9510453779131575 0.9510453779131575 1.6692347916760346 484.70938854357985 268.2416911954692)" id="tagline-d46026ea-67eb-4a96-bc25-a7a2250c0926-logo-1"  >
<g style=""  paint-order="stroke"   >
		<g transform="matrix(1 0 0 1 0 8.8818e-16)" id="0973dc34-c025-4a52-94e0-e52c916a1836-path-0"  >
<path style="stroke: none; stroke-width: 0; stroke-dasharray: none; stroke-linecap: butt; stroke-dashoffset: 0; stroke-linejoin: miter; stroke-miterlimit: 4; fill: rgb(90,64,68); fill-rule: nonzero; opacity: 1;"  paint-order="stroke"  transform=" translate(-3.4200000000000004, 4.88)" d="M 3.43 0.14 L 3.43 0.14 Q 2.53 0.14 1.85 -0.24 Q 1.16 -0.63 0.78 -1.27 Q 0.39 -1.9 0.39 -2.67 L 0.39 -2.67 L 0.41 -7.11 Q 0.41 -7.88 0.79 -8.51 Q 1.18 -9.14 1.86 -9.52 Q 2.55 -9.9 3.43 -9.9 L 3.43 -9.9 Q 4.33 -9.9 5 -9.52 Q 5.67 -9.14 6.05 -8.51 Q 6.44 -7.88 6.44 -7.11 L 6.44 -7.11 L 6.45 -2.67 Q 6.45 -1.9 6.07 -1.27 Q 5.68 -0.63 5 -0.24 Q 4.33 0.14 3.43 0.14 Z M 4.76 -2.67 L 4.76 -2.67 L 4.75 -7.11 Q 4.75 -7.6 4.38 -7.91 Q 4.02 -8.22 3.43 -8.22 L 3.43 -8.22 Q 2.83 -8.22 2.46 -7.91 Q 2.1 -7.6 2.1 -7.11 L 2.1 -7.11 L 2.1 -2.67 Q 2.1 -2.16 2.46 -1.85 Q 2.83 -1.55 3.43 -1.55 L 3.43 -1.55 Q 4.02 -1.55 4.39 -1.85 Q 4.76 -2.16 4.76 -2.67 Z" stroke-linecap="round" />
</g>
</g>
</g>
<g transform="matrix(1.7535673777349319 -0.7847506306691006 0.7847506306691006 1.7535673777349319 511.7211843004737 254.52993510338945)" id="tagline-d46026ea-67eb-4a96-bc25-a7a2250c0926-logo-2"  >
<g style=""  paint-order="stroke"   >
		<g transform="matrix(1 0 0 1 0 0)" id="0bc2fd1c-692a-4f1e-a79c-483197bc4063-path-0"  >
<path style="stroke: none; stroke-width: 0; stroke-dasharray: none; stroke-linecap: butt; stroke-dashoffset: 0; stroke-linejoin: miter; stroke-miterlimit: 4; fill: rgb(90,64,68); fill-rule: nonzero; opacity: 1;"  paint-order="stroke"  transform=" translate(-3.4200000000000004, 4.88)" d="M 3.43 0.14 L 3.43 0.14 Q 2.53 0.14 1.85 -0.24 Q 1.16 -0.63 0.78 -1.27 Q 0.39 -1.9 0.39 -2.67 L 0.39 -2.67 L 0.41 -7.11 Q 0.41 -7.88 0.79 -8.51 Q 1.18 -9.14 1.86 -9.52 Q 2.55 -9.9 3.43 -9.9 L 3.43 -9.9 Q 4.33 -9.9 5 -9.52 Q 5.67 -9.14 6.05 -8.51 Q 6.44 -7.88 6.44 -7.11 L 6.44 -7.11 L 6.45 -2.67 Q 6.45 -1.9 6.07 -1.27 Q 5.68 -0.63 5 -0.24 Q 4.33 0.14 3.43 0.14 Z M 4.76 -2.67 L 4.76 -2.67 L 4.75 -7.11 Q 4.75 -7.6 4.38 -7.91 Q 4.02 -8.22 3.43 -8.22 L 3.43 -8.22 Q 2.83 -8.22 2.46 -7.91 Q 2.1 -7.6 2.1 -7.11 L 2.1 -7.11 L 2.1 -2.67 Q 2.1 -2.16 2.46 -1.85 Q 2.83 -1.55 3.43 -1.55 L 3.43 -1.55 Q 4.02 -1.55 4.39 -1.85 Q 4.76 -2.16 4.76 -2.67 Z" stroke-linecap="round" />
</g>
</g>
</g>
<g transform="matrix(1.8263185602641878 -0.5961481502330278 0.5961481502330278 1.826318560264188 542.4248375415591 242.6908741314985)" id="tagline-d46026ea-67eb-4a96-bc25-a7a2250c0926-logo-3"  >
<g style=""  paint-order="stroke"   >
		<g transform="matrix(1 0 0 1 0 0)" id="dd8e033d-82ac-4f1f-892b-b2868766e4dd-path-0"  >
<path style="stroke: none; stroke-width: 0; stroke-dasharray: none; stroke-linecap: butt; stroke-dashoffset: 0; stroke-linejoin: miter; stroke-miterlimit: 4; fill: rgb(90,64,68); fill-rule: nonzero; opacity: 1;"  paint-order="stroke"  transform=" translate(-4.715, 4.87)" d="M 2.03 -5.22 L 2.03 -5.22 Q 1.54 -5.22 1.13 -5.47 Q 0.71 -5.73 0.47 -6.15 Q 0.22 -6.57 0.22 -7.06 L 0.22 -7.06 L 0.22 -8.05 Q 0.22 -8.55 0.47 -8.97 Q 0.71 -9.39 1.13 -9.64 Q 1.54 -9.88 2.03 -9.88 L 2.03 -9.88 Q 2.53 -9.88 2.94 -9.64 Q 3.35 -9.39 3.58 -8.97 Q 3.82 -8.55 3.82 -8.05 L 3.82 -8.05 L 3.82 -7.06 Q 3.82 -6.55 3.58 -6.14 Q 3.33 -5.73 2.93 -5.47 Q 2.52 -5.22 2.03 -5.22 Z M 2.66 0 L 1.02 0 Q 0.95 0 0.98 -0.07 L 0.98 -0.07 L 6.57 -9.69 Q 6.61 -9.74 6.65 -9.74 L 6.65 -9.74 L 8.27 -9.74 Q 8.34 -9.74 8.32 -9.69 L 8.32 -9.69 L 2.74 -0.07 Q 2.72 0 2.66 0 L 2.66 0 Z M 2 -6.36 L 2 -6.36 Q 2.28 -6.36 2.46 -6.56 Q 2.65 -6.76 2.65 -7.06 L 2.65 -7.06 L 2.65 -8.02 Q 2.65 -8.3 2.46 -8.51 Q 2.28 -8.71 2 -8.71 L 2 -8.71 Q 1.72 -8.71 1.53 -8.51 Q 1.34 -8.3 1.34 -8.02 L 1.34 -8.02 L 1.34 -7.06 Q 1.34 -6.78 1.54 -6.57 Q 1.74 -6.36 2 -6.36 Z M 7.42 0.14 L 7.42 0.14 Q 6.93 0.14 6.52 -0.11 Q 6.1 -0.36 5.86 -0.78 Q 5.61 -1.2 5.61 -1.69 L 5.61 -1.69 L 5.61 -2.69 Q 5.61 -3.19 5.86 -3.61 Q 6.1 -4.03 6.52 -4.28 Q 6.93 -4.52 7.42 -4.52 L 7.42 -4.52 Q 7.92 -4.52 8.33 -4.28 Q 8.74 -4.03 8.97 -3.61 Q 9.21 -3.19 9.21 -2.69 L 9.21 -2.69 L 9.21 -1.69 Q 9.21 -1.19 8.97 -0.78 Q 8.72 -0.36 8.32 -0.11 Q 7.91 0.14 7.42 0.14 Z M 7.41 -0.99 L 7.41 -0.99 Q 7.69 -0.99 7.87 -1.2 Q 8.05 -1.4 8.05 -1.69 L 8.05 -1.69 L 8.05 -2.66 Q 8.05 -2.94 7.87 -3.14 Q 7.69 -3.35 7.41 -3.35 L 7.41 -3.35 Q 7.13 -3.35 6.94 -3.14 Q 6.75 -2.94 6.75 -2.66 L 6.75 -2.66 L 6.75 -1.69 Q 6.75 -1.41 6.94 -1.2 Q 7.14 -0.99 7.41 -0.99 Z" stroke-linecap="round" />
</g>
</g>
</g>
<g transform="matrix(1.878575684110063 -0.40222568249942003 0.40222568249942015 1.8785756841100636 574.0320715793185 234.17473532608028)" id="tagline-d46026ea-67eb-4a96-bc25-a7a2250c0926-logo-4"  >
<g style=""  paint-order="stroke"   >
		<g transform="matrix(1 0 0 1 0 0)" id="454eae79-1fcd-462b-9f79-06c2ae5a57be-path-0"  >
<path style="stroke: none; stroke-width: 0; stroke-dasharray: none; stroke-linecap: butt; stroke-dashoffset: 0; stroke-linejoin: miter; stroke-miterlimit: 4; fill: rgb(90,64,68); fill-rule: nonzero; opacity: 1;"  paint-order="stroke"  transform=" translate(-3.4099999999999997, 4.87)" d="M 2.2 0 L 0.62 0 Q 0.56 0 0.56 -0.07 L 0.56 -0.07 L 0.59 -9.69 Q 0.59 -9.74 0.64 -9.74 L 0.64 -9.74 L 3.47 -9.74 Q 4.23 -9.74 4.87 -9.37 Q 5.5 -9 5.88 -8.38 Q 6.26 -7.76 6.26 -6.97 L 6.26 -6.97 Q 6.26 -6.45 6.1 -6.04 Q 5.95 -5.63 5.74 -5.34 Q 5.53 -5.05 5.36 -4.91 L 5.36 -4.91 Q 6.12 -4.07 6.12 -2.94 L 6.12 -2.94 L 6.13 -0.07 Q 6.13 0 6.06 0 L 6.06 0 L 4.48 0 Q 4.42 0 4.42 -0.04 L 4.42 -0.04 L 4.42 -2.94 Q 4.42 -3.44 4.07 -3.81 Q 3.71 -4.19 3.19 -4.19 L 3.19 -4.19 L 2.27 -4.19 L 2.25 -0.07 Q 2.25 0 2.2 0 L 2.2 0 Z M 2.27 -8.06 L 2.27 -5.87 L 3.47 -5.87 Q 3.91 -5.87 4.24 -6.19 Q 4.58 -6.51 4.58 -6.97 L 4.58 -6.97 Q 4.58 -7.42 4.25 -7.74 Q 3.92 -8.06 3.47 -8.06 L 3.47 -8.06 L 2.27 -8.06 Z" stroke-linecap="round" />
</g>
</g>
</g>
<g transform="matrix(1.9055403949921104 -0.24443384308443616 0.24443384308443616 1.9055403949921104 599.5018139978189 229.82233047935915)" id="tagline-d46026ea-67eb-4a96-bc25-a7a2250c0926-logo-5"  >
<g style=""  paint-order="stroke"   >
		<g transform="matrix(1 0 0 1 0 0)" id="e21dfa8d-4369-4b91-b4ce-1766d0bf1b1f-path-0"  >
<path style="stroke: none; stroke-width: 0; stroke-dasharray: none; stroke-linecap: butt; stroke-dashoffset: 0; stroke-linejoin: miter; stroke-miterlimit: 4; fill: rgb(90,64,68); fill-rule: nonzero; opacity: 1;"  paint-order="stroke"  transform=" translate(-1.415, 4.87)" d="M 2.21 0 L 0.63 0 Q 0.56 0 0.56 -0.07 L 0.56 -0.07 L 0.57 -9.69 Q 0.57 -9.74 0.63 -9.74 L 0.63 -9.74 L 2.2 -9.74 Q 2.25 -9.74 2.25 -9.69 L 2.25 -9.69 L 2.27 -0.07 Q 2.27 0 2.21 0 L 2.21 0 Z" stroke-linecap="round" />
</g>
</g>
</g>
<g transform="matrix(1.9191474615123603 -0.08777882183294652 0.08777882183294655 1.919147461512361 625.0156433413794 227.5843913422945)" id="tagline-d46026ea-67eb-4a96-bc25-a7a2250c0926-logo-6"  >
<g style=""  paint-order="stroke"   >
		<g transform="matrix(1 0 0 1 0 0)" id="af44c92e-a546-4663-8e7d-18ea9a9b6a44-path-0"  >
<path style="stroke: none; stroke-width: 0; stroke-dasharray: none; stroke-linecap: butt; stroke-dashoffset: 0; stroke-linejoin: miter; stroke-miterlimit: 4; fill: rgb(90,64,68); fill-rule: nonzero; opacity: 1;"  paint-order="stroke"  transform=" translate(-3.1300000000000003, 4.88)" d="M 3.12 0.14 L 3.12 0.14 Q 2.37 0.14 1.75 -0.24 Q 1.13 -0.62 0.76 -1.25 Q 0.39 -1.89 0.39 -2.67 L 0.39 -2.67 L 0.39 -7.11 Q 0.39 -7.87 0.76 -8.51 Q 1.13 -9.14 1.76 -9.52 Q 2.38 -9.9 3.12 -9.9 L 3.12 -9.9 Q 3.89 -9.9 4.51 -9.53 Q 5.14 -9.16 5.5 -8.53 Q 5.87 -7.9 5.87 -7.11 L 5.87 -7.11 L 5.87 -6.47 Q 5.87 -6.41 5.8 -6.41 L 5.8 -6.41 L 4.23 -6.41 Q 4.17 -6.41 4.17 -6.47 L 4.17 -6.47 L 4.17 -7 Q 4.17 -7.53 3.87 -7.88 Q 3.57 -8.23 3.12 -8.23 L 3.12 -8.23 Q 2.72 -8.23 2.4 -7.9 Q 2.09 -7.56 2.09 -7.11 L 2.09 -7.11 L 2.09 -2.67 Q 2.09 -2.21 2.39 -1.88 Q 2.7 -1.55 3.12 -1.55 L 3.12 -1.55 Q 3.57 -1.55 3.87 -1.88 Q 4.17 -2.2 4.17 -2.67 L 4.17 -2.67 L 4.17 -3.36 L 3.19 -3.36 Q 3.12 -3.36 3.12 -3.43 L 3.12 -3.43 L 3.12 -5 Q 3.12 -5.07 3.19 -5.07 L 3.19 -5.07 L 5.81 -5.07 Q 5.87 -5.07 5.87 -5 L 5.87 -5 L 5.87 -2.67 Q 5.87 -1.89 5.5 -1.25 Q 5.12 -0.62 4.51 -0.24 Q 3.89 0.14 3.12 0.14 Z" stroke-linecap="round" />
</g>
</g>
</g>
<g transform="matrix(1.9189951207708689 0.09104848735324998 -0.09104848735324998 1.9189951207708689 653.9930682020333 227.60205803248908)" id="tagline-d46026ea-67eb-4a96-bc25-a7a2250c0926-logo-7"  >
<g style=""  paint-order="stroke"   >
		<g transform="matrix(1 0 0 1 0 0)" id="9fabf43e-71ab-4035-a377-f3f993b72b05-path-0"  >
<path style="stroke: none; stroke-width: 0; stroke-dasharray: none; stroke-linecap: butt; stroke-dashoffset: 0; stroke-linejoin: miter; stroke-miterlimit: 4; fill: rgb(90,64,68); fill-rule: nonzero; opacity: 1;"  paint-order="stroke"  transform=" translate(-3.14, 4.88)" d="M 3.15 0.14 L 3.15 0.14 Q 2.39 0.14 1.77 -0.24 Q 1.15 -0.63 0.77 -1.27 Q 0.39 -1.9 0.39 -2.67 L 0.39 -2.67 L 0.41 -7.11 Q 0.41 -7.88 0.78 -8.51 Q 1.15 -9.14 1.78 -9.52 Q 2.41 -9.9 3.15 -9.9 L 3.15 -9.9 Q 3.91 -9.9 4.52 -9.52 Q 5.14 -9.14 5.51 -8.51 Q 5.88 -7.88 5.88 -7.11 L 5.88 -7.11 L 5.89 -2.67 Q 5.89 -1.9 5.52 -1.27 Q 5.15 -0.63 4.53 -0.24 Q 3.91 0.14 3.15 0.14 Z M 3.15 -1.55 L 3.15 -1.55 Q 3.57 -1.55 3.89 -1.9 Q 4.2 -2.24 4.2 -2.67 L 4.2 -2.67 L 4.19 -7.11 Q 4.19 -7.57 3.89 -7.9 Q 3.6 -8.22 3.15 -8.22 L 3.15 -8.22 Q 2.72 -8.22 2.41 -7.9 Q 2.1 -7.59 2.1 -7.11 L 2.1 -7.11 L 2.1 -2.67 Q 2.1 -2.21 2.41 -1.88 Q 2.72 -1.55 3.15 -1.55 Z" stroke-linecap="round" />
</g>
</g>
</g>
<g transform="matrix(1.9018162304466166 0.2718954324764135 -0.2718954324764137 1.9018162304466173 683.5482868939092 230.42278647675982)" id="tagline-d46026ea-67eb-4a96-bc25-a7a2250c0926-logo-8"  >
<g style=""  paint-order="stroke"   >
		<g transform="matrix(1 0 0 1 0 0)" id="fd71d803-a7cc-4355-b7a1-ca8ab75ee283-path-0"  >
<path style="stroke: none; stroke-width: 0; stroke-dasharray: none; stroke-linecap: butt; stroke-dashoffset: 0; stroke-linejoin: miter; stroke-miterlimit: 4; fill: rgb(90,64,68); fill-rule: nonzero; opacity: 1;"  paint-order="stroke"  transform=" translate(-3.4099999999999997, 4.87)" d="M 2.2 0 L 0.62 0 Q 0.56 0 0.56 -0.07 L 0.56 -0.07 L 0.59 -9.69 Q 0.59 -9.74 0.64 -9.74 L 0.64 -9.74 L 3.47 -9.74 Q 4.23 -9.74 4.87 -9.37 Q 5.5 -9 5.88 -8.38 Q 6.26 -7.76 6.26 -6.97 L 6.26 -6.97 Q 6.26 -6.45 6.1 -6.04 Q 5.95 -5.63 5.74 -5.34 Q 5.53 -5.05 5.36 -4.91 L 5.36 -4.91 Q 6.12 -4.07 6.12 -2.94 L 6.12 -2.94 L 6.13 -0.07 Q 6.13 0 6.06 0 L 6.06 0 L 4.48 0 Q 4.42 0 4.42 -0.04 L 4.42 -0.04 L 4.42 -2.94 Q 4.42 -3.44 4.07 -3.81 Q 3.71 -4.19 3.19 -4.19 L 3.19 -4.19 L 2.27 -4.19 L 2.25 -0.07 Q 2.25 0 2.2 0 L 2.2 0 Z M 2.27 -8.06 L 2.27 -5.87 L 3.47 -5.87 Q 3.91 -5.87 4.24 -6.19 Q 4.58 -6.51 4.58 -6.97 L 4.58 -6.97 Q 4.58 -7.42 4.25 -7.74 Q 3.92 -8.06 3.47 -8.06 L 3.47 -8.06 L 2.27 -8.06 Z" stroke-linecap="round" />
</g>
</g>
</g>
<g transform="matrix(1.8678370864831595 0.44946270028759705 -0.44946270028759705 1.8678370864831595 712.2241844838524 235.89256803817972)" id="tagline-d46026ea-67eb-4a96-bc25-a7a2250c0926-logo-9"  >
<g style=""  paint-order="stroke"   >
		<g transform="matrix(1 0 0 1 0 0)" id="a7b6915a-054f-455a-a6a7-7af3bdab2776-path-0"  >
<path style="stroke: none; stroke-width: 0; stroke-dasharray: none; stroke-linecap: butt; stroke-dashoffset: 0; stroke-linejoin: miter; stroke-miterlimit: 4; fill: rgb(90,64,68); fill-rule: nonzero; opacity: 1;"  paint-order="stroke"  transform=" translate(-3.14, 4.88)" d="M 3.15 0.14 L 3.15 0.14 Q 2.39 0.14 1.77 -0.24 Q 1.15 -0.63 0.77 -1.27 Q 0.39 -1.9 0.39 -2.67 L 0.39 -2.67 L 0.41 -7.11 Q 0.41 -7.88 0.78 -8.51 Q 1.15 -9.14 1.78 -9.52 Q 2.41 -9.9 3.15 -9.9 L 3.15 -9.9 Q 3.91 -9.9 4.52 -9.52 Q 5.14 -9.14 5.51 -8.51 Q 5.88 -7.88 5.88 -7.11 L 5.88 -7.11 L 5.89 -2.67 Q 5.89 -1.9 5.52 -1.27 Q 5.15 -0.63 4.53 -0.24 Q 3.91 0.14 3.15 0.14 Z M 3.15 -1.55 L 3.15 -1.55 Q 3.57 -1.55 3.89 -1.9 Q 4.2 -2.24 4.2 -2.67 L 4.2 -2.67 L 4.19 -7.11 Q 4.19 -7.57 3.89 -7.9 Q 3.6 -8.22 3.15 -8.22 L 3.15 -8.22 Q 2.72 -8.22 2.41 -7.9 Q 2.1 -7.59 2.1 -7.11 L 2.1 -7.11 L 2.1 -2.67 Q 2.1 -2.21 2.41 -1.88 Q 2.72 -1.55 3.15 -1.55 Z" stroke-linecap="round" />
</g>
</g>
</g>
<g transform="matrix(1.8173877886165424 0.6228432598809996 -0.6228432598809996 1.8173877886165426 740.3153039837922 244.20715005672525)" id="tagline-d46026ea-67eb-4a96-bc25-a7a2250c0926-logo-10"  >
<g style=""  paint-order="stroke"   >
		<g transform="matrix(1 0 0 1 0 0)" id="ca08b9e0-6e98-4aa1-831c-7763dbc5362f-path-0"  >
<path style="stroke: none; stroke-width: 0; stroke-dasharray: none; stroke-linecap: butt; stroke-dashoffset: 0; stroke-linejoin: miter; stroke-miterlimit: 4; fill: rgb(90,64,68); fill-rule: nonzero; opacity: 1;"  paint-order="stroke"  transform=" translate(-3.14, 4.8)" d="M 3.14 0.14 L 3.14 0.14 Q 2.39 0.14 1.76 -0.24 Q 1.13 -0.63 0.76 -1.27 Q 0.39 -1.92 0.39 -2.69 L 0.39 -2.69 L 0.42 -9.69 Q 0.42 -9.74 0.48 -9.74 L 0.48 -9.74 L 2.04 -9.74 Q 2.1 -9.74 2.1 -9.69 L 2.1 -9.69 L 2.1 -2.69 Q 2.1 -2.21 2.4 -1.88 Q 2.7 -1.55 3.14 -1.55 L 3.14 -1.55 Q 3.58 -1.55 3.89 -1.88 Q 4.19 -2.21 4.19 -2.69 L 4.19 -2.69 L 4.19 -9.69 Q 4.19 -9.74 4.24 -9.74 L 4.24 -9.74 L 5.81 -9.74 Q 5.87 -9.74 5.87 -9.69 L 5.87 -9.69 L 5.89 -2.69 Q 5.89 -1.9 5.52 -1.26 Q 5.15 -0.62 4.53 -0.24 Q 3.91 0.14 3.14 0.14 Z" stroke-linecap="round" />
</g>
</g>
</g>
<g transform="matrix(1.7520487996871614 0.7881352067421509 -0.7881352067421509 1.7520487996871614 767.1677736953637 254.65961873400784)" id="tagline-d46026ea-67eb-4a96-bc25-a7a2250c0926-logo-11"  >
<g style=""  paint-order="stroke"   >
		<g transform="matrix(1 0 0 1 0 0)" id="c2c6c52d-c8b9-44e6-863f-d128e3870e3f-path-0"  >
<path style="stroke: none; stroke-width: 0; stroke-dasharray: none; stroke-linecap: butt; stroke-dashoffset: 0; stroke-linejoin: miter; stroke-miterlimit: 4; fill: rgb(90,64,68); fill-rule: nonzero; opacity: 1;"  paint-order="stroke"  transform=" translate(-2.94, 4.87)" d="M 2.94 0.14 L 2.94 0.14 Q 2.18 0.14 1.56 -0.24 Q 0.94 -0.63 0.57 -1.27 Q 0.2 -1.9 0.2 -2.67 L 0.2 -2.67 L 0.2 -3.32 Q 0.2 -3.39 0.27 -3.39 L 0.27 -3.39 L 1.83 -3.39 Q 1.89 -3.39 1.89 -3.32 L 1.89 -3.32 L 1.89 -2.67 Q 1.89 -2.21 2.2 -1.88 Q 2.51 -1.55 2.94 -1.55 L 2.94 -1.55 Q 3.37 -1.55 3.68 -1.89 Q 3.99 -2.23 3.99 -2.67 L 3.99 -2.67 Q 3.99 -3.19 3.32 -3.57 L 3.32 -3.57 Q 3.09 -3.7 2.62 -3.96 Q 2.14 -4.23 1.72 -4.47 L 1.72 -4.47 Q 0.95 -4.91 0.58 -5.59 Q 0.21 -6.27 0.21 -7.13 L 0.21 -7.13 Q 0.21 -7.91 0.59 -8.53 Q 0.97 -9.16 1.59 -9.52 Q 2.21 -9.88 2.94 -9.88 L 2.94 -9.88 Q 3.68 -9.88 4.3 -9.51 Q 4.93 -9.14 5.3 -8.52 Q 5.67 -7.9 5.67 -7.13 L 5.67 -7.13 L 5.67 -5.98 Q 5.67 -5.92 5.61 -5.92 L 5.61 -5.92 L 4.05 -5.92 Q 3.99 -5.92 3.99 -5.98 L 3.99 -5.98 L 3.98 -7.13 Q 3.98 -7.62 3.67 -7.92 Q 3.36 -8.23 2.94 -8.23 L 2.94 -8.23 Q 2.51 -8.23 2.2 -7.9 Q 1.89 -7.57 1.89 -7.13 L 1.89 -7.13 Q 1.89 -6.66 2.09 -6.36 Q 2.28 -6.05 2.8 -5.77 L 2.8 -5.77 Q 2.87 -5.73 3.07 -5.62 Q 3.28 -5.52 3.51 -5.38 Q 3.75 -5.25 3.94 -5.15 Q 4.13 -5.05 4.17 -5.03 L 4.17 -5.03 Q 4.87 -4.63 5.28 -4.07 Q 5.68 -3.5 5.68 -2.67 L 5.68 -2.67 Q 5.68 -1.88 5.31 -1.24 Q 4.94 -0.6 4.32 -0.23 Q 3.7 0.14 2.94 0.14 Z" stroke-linecap="round" />
</g>
</g>
</g>
<g transform="matrix(1.6743951308765508 0.9419304890959919 -0.9419304890959919 1.6743951308765508 792.5052281092477 267.45251583033587)" id="tagline-d46026ea-67eb-4a96-bc25-a7a2250c0926-logo-12"  >
<g style=""  paint-order="stroke"   >
		<g transform="matrix(1 0 0 1 0 8.8818e-16)" id="c31121f6-b536-4a92-8462-5d269193947c-path-0"  >
<path style="stroke: none; stroke-width: 0; stroke-dasharray: none; stroke-linecap: butt; stroke-dashoffset: 0; stroke-linejoin: miter; stroke-miterlimit: 4; fill: rgb(90,64,68); fill-rule: nonzero; opacity: 1;"  paint-order="stroke"  transform=" translate(-2.8850000000000002, 4.87)" d="M 5.14 0 L 0.62 0 Q 0.56 0 0.56 -0.07 L 0.56 -0.07 L 0.57 -9.67 Q 0.57 -9.74 0.64 -9.74 L 0.64 -9.74 L 2.2 -9.74 Q 2.27 -9.74 2.27 -9.67 L 2.27 -9.67 L 2.25 -1.72 L 5.14 -1.72 Q 5.21 -1.72 5.21 -1.65 L 5.21 -1.65 L 5.21 -0.07 Q 5.21 0 5.14 0 L 5.14 0 Z" stroke-linecap="round" />
</g>
</g>
</g>
<g transform="matrix(1.5928536804617166 1.0740806549004034 -1.0740806549004034 1.5928536804617168 813.5972831194466 280.4662285592218)" id="tagline-d46026ea-67eb-4a96-bc25-a7a2250c0926-logo-13"  >
<g style=""  paint-order="stroke"   >
		<g transform="matrix(1 0 0 1 0 0)" id="f53f18a0-7d79-4063-8c65-f165134cf40f-path-0"  >
<path style="stroke: none; stroke-width: 0; stroke-dasharray: none; stroke-linecap: butt; stroke-dashoffset: 0; stroke-linejoin: miter; stroke-miterlimit: 4; fill: rgb(90,64,68); fill-rule: nonzero; opacity: 1;"  paint-order="stroke"  transform=" translate(-2.68, 4.87)" d="M 3.47 0 L 1.86 0 Q 1.82 0 1.82 -0.06 L 1.82 -0.06 L 1.83 -4.03 L -0.04 -9.69 Q -0.06 -9.74 0 -9.74 L 0 -9.74 L 1.55 -9.74 Q 1.62 -9.74 1.64 -9.69 L 1.64 -9.69 L 2.67 -5.92 L 3.72 -9.69 Q 3.74 -9.74 3.79 -9.74 L 3.79 -9.74 L 5.36 -9.74 Q 5.42 -9.74 5.4 -9.69 L 5.4 -9.69 L 3.51 -4.09 L 3.53 -0.06 Q 3.53 0 3.47 0 L 3.47 0 Z" stroke-linecap="round" />
</g>
</g>
</g>
</svg>